<svg version="1.1" id="Layer_1" xmlns="http://www.w3.org/2000/svg" xmlns:xlink="http://www.w3.org/1999/xlink" x="0px" y="0px"
	 width="500px" height="333.16px" viewBox="0 0 500 333.16" enable-background="new 0 0 500 333.16" xml:space="preserve">
<g id="section-1">
	<path fill="#86C38D" d="M184.901,231.021L-0.064,265.426c23.54,16.645,47.52,30.081,71.064,40.342l155.062-58.438L184.901,231.021z
		"/>
</g>
<g id="section-2">
	<path fill="#2DAB84" d="M160.438,330.705l99.625-70.125l-34.375-13.688l-155.004,58.75
		C100.815,318.778,131.209,326.944,160.438,330.705z"/>
</g>
<g id="section-3">
	<polygon fill="#70B7A8" points="225.262,247.014 259.875,260.768 283.188,243.955 263.521,232.503 	"/>
</g>
<g id="section-4">
	<path fill="#008F8E" d="M159.98,330.691c24.672,3.174,49.011,3.223,72.364,0.514l58.531-58.812l-31.062-12.375L159.98,330.691z"/>
</g>
<g id="section-5">
	<polygon fill="#2B959D" points="259.125,260.518 290.751,272.956 306.709,256.581 283.376,243.414 	"/>
</g>
<g id="section-6">
	<polygon fill="#7AA7B9" points="282.837,243.768 306.043,257.331 333.626,229.331 320.648,217.014 	"/>
</g>
<g id="section-7">
	<path fill="#007A98" d="M232.17,331.205c20.794-2.412,41.014-7.034,60.299-13.562l28.031-34.125l-29.562-11.812L232.17,331.205z"/>
</g>
<g id="section-8">
	<polygon fill="#107D9F" points="289.982,272.657 319.251,284.289 330.042,270.539 306.043,256.414 	"/>
</g>
<g id="section-9">
	<polygon fill="#4187AD" points="305.477,256.967 329.542,270.997 350.209,244.247 333.584,228.539 	"/>
</g>
<g id="section-10">
	<polygon fill="#7B9CC0" points="368.959,220.622 358.77,202.996 333.191,228.9 349.918,244.789 	"/>
</g>
<g id="section-11">
	<path fill="#006796" d="M292.396,317.658c17.004-5.758,33.34-13.012,48.854-21.594l3.459-1.983l-25.5-10.792L292.396,317.658z"/>
</g>
<g id="section-12">
	<polygon fill="#1C6C9D" points="318.66,284.018 343.209,293.706 350.126,282.289 329.049,270.711 	"/>
</g>
<g id="section-13">
	<g>
		<polygon fill="#2D6B9F" points="329.049,270.711 350.042,282.873 365.167,258.248 350.084,243.789 		"/>
		<line fill="none" x1="364.363" y1="258.447" x2="349.5" y2="282.636"/>
	</g>
</g>
<g id="section-14">
	<polygon fill="#4972A6" points="349.57,244.425 364.626,258.789 378.334,236.831 368.918,219.706 	"/>
</g>
<g id="section-15">
	<g>
		<polygon fill="#7389B7" points="409.45,167.721 368.586,220.066 378.251,236.83 412.688,180.33 		"/>
		<g>
			<g>
				<g>
					<defs>
						<polygon id="SVGID_1_" points="409.45,167.721 368.586,220.066 377.945,236.343 412.688,180.455 						"/>
					</defs>
					<clipPath id="SVGID_2_">
						<use xlink:href="#SVGID_1_"  overflow="visible"/>
					</clipPath>
					
						<linearGradient id="SVGID_3_" gradientUnits="userSpaceOnUse" x1="222.0195" y1="1955.0264" x2="611.2549" y2="1955.0264" gradientTransform="matrix(0.0164 -0.5201 1.0219 0.0321 -1565.6011 256.9251)">
						<stop  offset="0" style="stop-color:#FFFFFF;stop-opacity:0"/>
						<stop  offset="1" style="stop-color:#FFFFFF"/>
					</linearGradient>
					<polygon clip-path="url(#SVGID_2_)" fill="url(#SVGID_3_)" points="590.81,-5.469 583.59,224.02 287.273,212.932 
						413.52,-11.038 					"/>
				</g>
			</g>
		</g>
	</g>
</g>
<g id="section-16">
	<g>
		<path fill="#23599B" d="M364.688,257.955L349.5,282.636l-6.721,10.938l1.699,0.673c11.834-6.737,23.235-14.289,34.021-22.495
			L364.688,257.955z"/>
	</g>
</g>
<g id="section-17">
	<g>
		<path fill="#355A9C" d="M364.363,258.447l14.08,13.347c3.969-3.021,7.86-6.133,11.675-9.336l2.216-1.878l-14.271-24.438
			L364.363,258.447z"/>
	</g>
</g>
<g id="section-18">
	<g>
		<polygon fill="#4460A2" points="412.75,179.643 377.945,236.343 391.562,260.08 419.25,201.893 		"/>
		<g>
			<g>
				<g>
					<defs>
						<polygon id="SVGID_4_" points="412.918,179.538 377.945,236.343 391.626,260.038 418.793,202.205 						"/>
					</defs>
					<clipPath id="SVGID_5_">
						<use xlink:href="#SVGID_4_"  overflow="visible"/>
					</clipPath>
					
						<linearGradient id="SVGID_6_" gradientUnits="userSpaceOnUse" x1="222.0195" y1="1955.0264" x2="611.2549" y2="1955.0264" gradientTransform="matrix(0.0164 -0.5201 1.0219 0.0321 -1565.6011 256.9251)">
						<stop  offset="0" style="stop-color:#FFFFFF;stop-opacity:0"/>
						<stop  offset="1" style="stop-color:#FFFFFF"/>
					</linearGradient>
					<polygon clip-path="url(#SVGID_5_)" fill="url(#SVGID_6_)" points="590.81,-5.469 583.59,224.02 287.273,212.932 
						413.52,-11.038 					"/>
				</g>
			</g>
		</g>
	</g>
</g>
<g id="section-19">
	<g>
		<polygon fill="#6E78B2" points="442.75,150.955 441.642,132.676 412.58,179.973 418.438,203.018 		"/>
		<g>
			<g>
				<g>
					<defs>
						<polygon id="SVGID_7_" points="442.711,150.319 441.642,132.676 412.58,179.973 418.3,202.366 						"/>
					</defs>
					<clipPath id="SVGID_8_">
						<use xlink:href="#SVGID_7_"  overflow="visible"/>
					</clipPath>
					
						<linearGradient id="SVGID_9_" gradientUnits="userSpaceOnUse" x1="222.0195" y1="1955.0264" x2="611.2549" y2="1955.0264" gradientTransform="matrix(0.0164 -0.5201 1.0219 0.0321 -1565.6011 256.9251)">
						<stop  offset="0" style="stop-color:#FFFFFF;stop-opacity:0"/>
						<stop  offset="1" style="stop-color:#FFFFFF"/>
					</linearGradient>
					<polygon clip-path="url(#SVGID_8_)" fill="url(#SVGID_9_)" points="590.81,-5.469 583.59,224.02 287.273,212.932 
						413.52,-11.038 					"/>
				</g>
			</g>
		</g>
	</g>
</g>
<g id="section-20">
	<g>
		<path fill="#3853A1" d="M391.396,259.734l0.636,1.105c11.759-10.039,22.811-21.009,32.937-32.65l-6.469-26.234L391.396,259.734z"
			/>
	</g>
</g>
<g id="section-21">
	<g>
		<path fill="#4359A4" d="M418.3,202.366l6.615,25.899c7.446-8.562,14.74-17.867,21.21-27.186l-3.25-51.188L418.3,202.366z"/>
		<g>
			<g>
				<g>
					<defs>
						<path id="SVGID_10_" d="M418.3,202.366l6.615,25.899c7.446-8.562,14.521-17.68,20.991-26.998l-3.031-51.312L418.3,202.366z"/>
					</defs>
					<clipPath id="SVGID_11_">
						<use xlink:href="#SVGID_10_"  overflow="visible"/>
					</clipPath>
					
						<linearGradient id="SVGID_12_" gradientUnits="userSpaceOnUse" x1="222.0195" y1="1955.0264" x2="611.2549" y2="1955.0264" gradientTransform="matrix(0.0164 -0.5201 1.0219 0.0321 -1565.6011 256.9251)">
						<stop  offset="0" style="stop-color:#FFFFFF;stop-opacity:0"/>
						<stop  offset="1" style="stop-color:#FFFFFF"/>
					</linearGradient>
					<polygon clip-path="url(#SVGID_11_)" fill="url(#SVGID_12_)" points="590.81,-5.469 583.59,224.02 287.273,212.932 
						413.52,-11.038 					"/>
				</g>
			</g>
		</g>
	</g>
</g>
<g id="section-22">
	<g>
		<path fill="#6D76B8" d="M463.766,105.422l-21.055,44.896l3.096,51.104c2.039-2.938,4.257-6.087,6.193-9.092l10.375-48.375
			L463.766,105.422z"/>
		<g>
			<g>
				<g>
					<defs>
						<path id="SVGID_13_" d="M463.766,105.422l-21.055,44.896l3.096,51.104c2.039-2.938,4.132-6.087,6.068-9.092l11.418-49.27
							L463.766,105.422z"/>
					</defs>
					<clipPath id="SVGID_14_">
						<use xlink:href="#SVGID_13_"  overflow="visible"/>
					</clipPath>
					
						<linearGradient id="SVGID_15_" gradientUnits="userSpaceOnUse" x1="217.6289" y1="1953.9961" x2="606.866" y2="1953.9961" gradientTransform="matrix(0.0164 -0.5201 1.0219 0.0321 -1565.6011 256.9251)">
						<stop  offset="0" style="stop-color:#FFFFFF;stop-opacity:0"/>
						<stop  offset="1" style="stop-color:#FFFFFF"/>
					</linearGradient>
					<polygon clip-path="url(#SVGID_14_)" fill="url(#SVGID_15_)" points="589.685,-3.219 582.465,226.27 286.148,215.182 
						412.395,-8.788 					"/>
				</g>
			</g>
		</g>
	</g>
</g>
<g id="section-23">
	<g>
		<path fill="#4456A6" d="M451.771,192.51c3.203-4.974,6.501-10.342,9.416-15.492l1.25-34.812L451.771,192.51z"/>
		<g>
			<g>
				<g>
					<defs>
						<path id="SVGID_16_" d="M451.771,192.51c3.203-4.974,6.345-10.154,9.26-15.305l1.469-34.938L451.771,192.51z"/>
					</defs>
					<clipPath id="SVGID_17_">
						<use xlink:href="#SVGID_16_"  overflow="visible"/>
					</clipPath>
					
						<linearGradient id="SVGID_18_" gradientUnits="userSpaceOnUse" x1="223.7148" y1="1955.2441" x2="612.9503" y2="1955.2441" gradientTransform="matrix(0.0164 -0.5201 1.0219 0.0321 -1565.6011 256.9251)">
						<stop  offset="0" style="stop-color:#FFFFFF;stop-opacity:0"/>
						<stop  offset="1" style="stop-color:#FFFFFF"/>
					</linearGradient>
					<polygon clip-path="url(#SVGID_17_)" fill="url(#SVGID_18_)" points="591.06,-6.344 583.84,223.145 287.523,212.057 
						413.77,-11.913 					"/>
				</g>
			</g>
		</g>
	</g>
</g>
<g id="section-24">
	<g>
		<path fill="#6D74B7" d="M479.125,63.941l-16.832,79.12l-1.342,34.257c5.388-9.521,10.273-19.328,14.619-29.388l4.66-36.15
			L479.125,63.941z"/>
		<g>
			<g>
				<g>
					<defs>
						<path id="SVGID_19_" d="M479.125,63.941l-16.832,79.12l-1.342,34.257c5.388-9.521,10.391-19.584,14.736-29.645l4.543-35.894
							L479.125,63.941z"/>
					</defs>
					<clipPath id="SVGID_20_">
						<use xlink:href="#SVGID_19_"  overflow="visible"/>
					</clipPath>
					
						<linearGradient id="SVGID_21_" gradientUnits="userSpaceOnUse" x1="222.0195" y1="1955.0264" x2="611.2549" y2="1955.0264" gradientTransform="matrix(0.0164 -0.5201 1.0219 0.0321 -1565.6011 256.9251)">
						<stop  offset="0" style="stop-color:#FFFFFF;stop-opacity:0"/>
						<stop  offset="1" style="stop-color:#FFFFFF"/>
					</linearGradient>
					<polygon clip-path="url(#SVGID_20_)" fill="url(#SVGID_21_)" points="590.81,-5.469 583.59,224.02 287.273,212.932 
						413.52,-11.038 					"/>
				</g>
			</g>
		</g>
	</g>
</g>
<g id="section-25">
	<g>
		<path fill="#4656A6" d="M480.768,135.064l-0.535-23.285l-4.66,36.15C477.403,143.686,479.13,139.394,480.768,135.064z"/>
		<g>
			<g>
				<g>
					<defs>
						<path id="SVGID_22_" d="M480.875,134.893l-0.438-24.375l-4.865,37.411C477.403,143.686,479.237,139.223,480.875,134.893z"/>
					</defs>
					<clipPath id="SVGID_23_">
						<use xlink:href="#SVGID_22_"  overflow="visible"/>
					</clipPath>
					
						<linearGradient id="SVGID_24_" gradientUnits="userSpaceOnUse" x1="222.0195" y1="1955.0264" x2="611.2549" y2="1955.0264" gradientTransform="matrix(0.0164 -0.5201 1.0219 0.0321 -1565.6011 256.9251)">
						<stop  offset="0" style="stop-color:#FFFFFF;stop-opacity:0"/>
						<stop  offset="1" style="stop-color:#FFFFFF"/>
					</linearGradient>
					<polygon clip-path="url(#SVGID_23_)" fill="url(#SVGID_24_)" points="590.81,-5.469 583.59,224.02 287.273,212.932 
						413.52,-11.038 					"/>
				</g>
			</g>
		</g>
	</g>
</g>
<g id="section-26">
	<g>
		<path fill="#6D74B7" d="M491.861,92.926l-1.438-60.23L480.23,111.78l0.535,23.285c4.146-10.959,7.66-22.182,10.498-33.618
			L491.861,92.926z"/>
		<g>
			<g>
				<g>
					<defs>
						<path id="SVGID_25_" d="M491.861,92.926l-1.438-60.23L480.23,111.78l0.535,23.285c4.146-10.959,7.709-22.315,10.547-33.75
							L491.861,92.926z"/>
					</defs>
					<clipPath id="SVGID_26_">
						<use xlink:href="#SVGID_25_"  overflow="visible"/>
					</clipPath>
					
						<linearGradient id="SVGID_27_" gradientUnits="userSpaceOnUse" x1="222.0195" y1="1955.0264" x2="611.2549" y2="1955.0264" gradientTransform="matrix(0.0164 -0.5201 1.0219 0.0321 -1565.6011 256.9251)">
						<stop  offset="0" style="stop-color:#FFFFFF;stop-opacity:0"/>
						<stop  offset="1" style="stop-color:#FFFFFF"/>
					</linearGradient>
					<polygon clip-path="url(#SVGID_26_)" fill="url(#SVGID_27_)" points="590.81,-5.469 583.59,224.02 287.273,212.932 
						413.52,-11.038 					"/>
				</g>
			</g>
		</g>
	</g>
</g>
<g id="section-27">
	<g>
		<path fill="#6D74B7" d="M498.252,1.596l-6.391,91.33l-0.598,8.521C498.64,70.342,501.746,34.727,498.252,1.596z"/>
		<g>
			<g>
				<g>
					<defs>
						<path id="SVGID_28_" d="M498.252,1.596l-6.391,91.33l-0.598,8.521C498.64,70.342,501.746,34.727,498.252,1.596z"/>
					</defs>
					<clipPath id="SVGID_29_">
						<use xlink:href="#SVGID_28_"  overflow="visible"/>
					</clipPath>
					
						<linearGradient id="SVGID_30_" gradientUnits="userSpaceOnUse" x1="218.8086" y1="1947.7998" x2="608.0449" y2="1947.7998" gradientTransform="matrix(0.0164 -0.5201 1.0219 0.0321 -1565.6011 256.9251)">
						<stop  offset="0" style="stop-color:#FFFFFF;stop-opacity:0"/>
						<stop  offset="1" style="stop-color:#FFFFFF"/>
					</linearGradient>
					<polygon clip-path="url(#SVGID_29_)" fill="url(#SVGID_30_)" points="583.372,-4.031 576.152,225.457 279.836,214.369 
						406.082,-9.601 					"/>
				</g>
			</g>
		</g>
	</g>
</g>
</svg>
